<?xml version="1.0" encoding="UTF-8" standalone="no"?>
<svg width="350px" height="206px" viewBox="0 0 350 206" version="1.1" xmlns="http://www.w3.org/2000/svg" xmlns:xlink="http://www.w3.org/1999/xlink">
    <!-- Generator: Sketch 40 (33762) - http://www.bohemiancoding.com/sketch -->
    <title>laptop-large</title>
    <desc>Created with Sketch.</desc>
    <defs></defs>
    <g id="Install-Page" stroke="none" stroke-width="1" fill="none" fill-rule="evenodd">
        <g id="b2-desktop-1" transform="translate(-942.000000, -211.000000)">
            <g id="laptop-animation-large" transform="translate(942.000000, 211.000000)">
                <g id="laptop-large">
                    <rect id="outer" fill="#3A3A3A" x="29.3334543" y="0" width="289.14405" height="190.855086" rx="3.4155871"></rect>
                    <polygon id="screen" fill="#616467" points="48.1370017 175.430747 299.99515 175.430747 299.99515 17.613464 48.1370017 17.613464"></polygon>
                    <g id="base" transform="translate(0.000000, 190.709728)">
                        <path d="M0.0671929122,0.849159952 C0.0300832902,0.38018186 0.375831694,0 0.854466289,0 L349.051736,0 C349.523645,0 349.832097,0.376057966 349.727279,0.82785953 C349.727279,0.82785953 347.51914,14.6188641 333.02973,14.6188641 L15.0298447,14.6188641 C0.363117499,14.6188641 0.0671929122,0.849159952 0.0671929122,0.849159952 Z" fill="#2F2E2E"></path>
                        <rect id="indent" fill="#212121" x="155.366323" y="0.332246912" width="39.5055393" height="2.6579753"></rect>
                    </g>
                    <rect id="rounded-rectangle" fill="#212121" x="169.973413" y="8.97066663" width="9.98231717" height="1.51292943" rx="0.756464715"></rect>
                </g>
            </g>
        </g>
    </g>
</svg>
